# AST/ASF file generated using VICON BodyLanguage
# -----------------------------------------------
:version 1.10
:name VICON
:units
  mass 1.0
  length 0.45
  angle deg
:documentation
   .ast/.asf automatically generated from VICON data using
   VICON BodyBuilder and BodyLanguage model FoxedUp or BRILLIANT.MOD
:root
   order TX TY TZ RX RY RZ
   axis XYZ
   position 0 0 0  
   orientation 0 0 0 
:bonedata
  begin
     id 1 
     name lhipjoint
     direction 0.710188 -0.616876 0.339259 
     length 2.5669 
     axis 0 0 0  XYZ
  end
  begin
     id 2 
     name lfemur
     direction 0.34202 -0.939693 0  
     length 7.12796  
     axis 0 0 20  XYZ
    dof rx ry rz
    limits (-160.0 20.0)
           (-70.0 70.0)
           (-60.0 70.0)
  end
  begin
     id 3 
     name ltibia
     direction 0.34202 -0.939693 0   
     length 7.58108   
     axis 0 0 20   XYZ
    dof rx
    limits (-10.0 170.0)
  end
  begin
     id 4 
     name lfoot
     direction 0.0669471 -0.183936 0.980656   
     length 2.17365   
     axis -90 7.62852e-016 20   XYZ
    dof rx rz
    limits (-45.0 90.0)
           (-70.0 20.0)
  end
  begin
     id 5 
     name ltoes
     direction 1.53508e-011 -4.21705e-011 1   
     length 1.09427   
     axis -90 7.62852e-016 20   XYZ
    dof rx
    limits (-90.0 20.0)
  end
  begin
     id 6 
     name rhipjoint
     direction -0.700191 -0.625589 0.34405   
     length 2.53115  
     axis 0 0 0  XYZ 
  end
  begin
     id 7 
     name rfemur
     direction -0.34202 -0.939693 0   
     length 7.33006   
     axis 0 0 -20   XYZ
    dof rx ry rz
    limits (-160.0 20.0)
           (-70.0 70.0)
           (-70.0 60.0)
  end
  begin
     id 8 
     name rtibia
     direction -0.34202 -0.939693 0   
     length 7.64926   
     axis 0 0 -20   XYZ
    dof rx
    limits (-10.0 170.0)
 end
 begin
     id 9 
     name rfoot
     direction -0.0688927 -0.189281 0.979503   
     length 2.20493  
     axis -90 -7.62852e-016 -20   XYZ
    dof rx rz
    limits (-45.0 90.0)
           (-20.0 70.0)
  end
  begin
     id 10 
     name rtoes
     direction -1.53567e-011 -4.21933e-011 1   
     length 1.10919   
     axis -90 -7.62852e-016 -20   XYZ
    dof rx
    limits (-90.0 20.0)
  end
  begin
     id 11 
     name lowerback
     direction -0.0167868 0.989873 -0.140959   
     length 2.14596   
     axis 0 0 0   XYZ
    dof rx ry rz
    limits (-20.0 45.0)
           (-30.0 30.0)
           (-30.0 30.0)
  end
  begin
     id 12 
     name upperback
     direction 0.0129109 0.998033 0.0613525   
     length 2.10457   
     axis 0 0 0   XYZ
    dof rx ry rz
    limits (-20.0 45.0)
           (-30.0 30.0)
           (-30.0 30.0)
  end
  begin
     id 13 
     name thorax
     direction 0.0177047 0.991119 0.131797   
     length 2.17652   
     axis 0 0 0   XYZ
    dof rx ry rz
    limits (-20.0 45.0)
           (-30.0 30.0)
           (-30.0 30.0)
  end
  begin
     id 14 
     name lowerneck
     direction -0.0336893 0.997548 0.0613464   
     length 1.8912   
     axis 0 0 0   XYZ
    dof rx ry rz
    limits (-20.0 45.0)
           (-30.0 30.0)
           (-30.0 30.0)
  end
  begin
     id 15 
     name upperneck
     direction 0.0435909 0.997179 -0.0611028   
     length 1.8829   
     axis 0 0 0   XYZ
    dof rx ry rz
    limits (-20.0 45.0)
           (-30.0 30.0)
           (-30.0 30.0)
  end
  begin
     id 16
     name head
     direction 0.0175076 0.999444 -0.0283782  
     length 1.93197  
     axis 0 0 0   XYZ
    dof rx ry rz
    limits (-20.0 45.0)
           (-30.0 30.0)
           (-30.0 30.0)
  end
  begin
     id 17 
     name lclavicle
     direction 0.919164 0.389875 0.0559876  
     length 3.60004  
     axis 0 0 0   XYZ
    dof ry rz
    limits (-20.0 10.0)
           (0.0 20.0)
  end
  begin
     id 18 
     name lhumerus
     direction 1 -4.48958e-011 6.89191e-027   
     length 5.43301   
     axis 180 -30 -90   XYZ
    dof rx ry rz
    limits (-60.0 90.0)
           (-90.0 90.0)
           (-90.0 90.0)
  end
  begin
     id 19
     name lradius
     direction 1 -4.4897e-011 3.24727e-027   
     length 3.15936   
     axis 180 -30 -90   XYZ
    dof rx
    limits (-10.0 170.0)
  end
  begin
     id 20
     name lwrist
     direction 1 -4.4897e-011 9.00228e-027   
     length 1.57968   
     axis -6.29373e-015 90 90   XYZ
    dof ry
    limits (-180.0 0.0)
 end
  begin
     id 21 
     name lhand
     direction 1 -4.48968e-011 1.80042e-026   
     length 0.712827   
     axis -1.14882e-014 90 90   XYZ
    dof rx rz
    limits (-90.0 90.0)
           (-45.0 45.0)
  end
  begin
     id 22 
     name lfingers
     direction 1 -4.49019e-011 3.60267e-026   
     length 0.574699   
     axis -2.29769e-014 90 90   XYZ
    dof rx
    limits (0.0 90.0)
  end
  begin
     id 23
     name lthumb
     direction 0.707107 -6.3498e-011 0.707107   
     length 0.825157   
     axis -90 45 5.37419e-014   XYZ
    dof rx rz
    limits (-45.0 45.0)
           (-45.0 45.0)
  end
  begin
     id 24 
     name rclavicle
     direction -0.890334 0.455305 -0.00132111   
     length 3.51494  
     axis 0 0 0   XYZ 
    dof ry rz
    limits (-10.0 20.0)
           (-20.0 0.0)
  end
  begin
     id 25 
     name rhumerus
     direction -1 -4.48967e-011 5.07175e-028  
     length 5.34194   
     axis 180 30 90   XYZ
    dof rx ry rz
    limits (-90.0 60.0)
           (-90.0 90.0)
           (-90.0 90.0)
  end
  begin
     id 26 
     name rradius
     direction -1 -4.48955e-011 3.30467e-027   
     length 3.19351   
     axis 180 30 90   XYZ
    dof rx
    limits (-10.0 170.0)
  end
  begin
     id 27 
     name rwrist
     direction -1 -4.48968e-011 9.00208e-027   
     length 1.59676   
     axis -6.29373e-015 -90 -90   XYZ
    dof ry
    limits (-180.0 0.0)
  end
  begin
     id 28
     name rhand
     direction -1 -4.49e-011 1.80099e-026   
     length 0.743862   
     axis -1.14882e-014 -90 -90   XYZ
    dof rx rz
    limits (-90.0 90.0)
           (-45.0 45.0)
  end
  begin
     id 29
     name rfingers
     direction -1 -4.49009e-011 3.6023e-026   
     length 0.599721   
     axis -2.29769e-014 -90 -90   XYZ
    dof rx
    limits (0.0 90.0)
  end
  begin
     id 30
     name rthumb
     direction -0.707107 -6.35025e-011 0.707107   
     length 0.861083   
     axis -90 -45 -5.37419e-014   XYZ
    dof rx rz
    limits (-45.0 45.0)
           (-45.0 45.0)
  end
:hierarchy
  begin
    root lhipjoint rhipjoint lowerback
    lhipjoint lfemur
    lfemur ltibia
    ltibia lfoot
    lfoot ltoes
    rhipjoint rfemur
    rfemur rtibia
    rtibia rfoot
    rfoot rtoes
    lowerback upperback
    upperback thorax
    thorax lowerneck lclavicle rclavicle
    lowerneck upperneck
    upperneck head
    lclavicle lhumerus
    lhumerus lradius
    lradius lwrist
    lwrist lhand lthumb
    lhand lfingers
    rclavicle rhumerus
    rhumerus rradius
    rradius rwrist
    rwrist rhand rthumb
    rhand rfingers
  end

#!OML:ASF H:\Martial Arts Walks\Project 1\Capture day 1\Session 1\male.ASF
:FULLY-SPECIFIED
:DEGREES
501
root -2.23523 14.224 -12.9934 -0.803063 49.9589 -2.53512
lowerback 14.6054 -1.06334 -6.5684
upperback -2.5096 -2.30768 3.1599
thorax -10.6098 -0.566836 7.76596
lowerneck 5.52754 -13.8952 -14.1573
upperneck 0.81126 -19.4623 12.1057
head 1.92144 -9.87563 5.37072
rclavicle -1.36664e-014 -7.95139e-016
rhumerus -0.0196494 -15.7487 -68.0735
rradius 80.0198
rwrist 23.8346
rhand -44.7051 -36.9578
rfingers 7.12502
rthumb -17.4999 -66.1902
lclavicle -1.36664e-014 -7.95139e-016
lhumerus -54.2976 -43.553 119.663
lradius 103.509
lwrist 79.5381
lhand 14.1983 40.3045
lfingers 7.12502
lthumb 39.0965 65.7968
rfemur -56.8097 -35.9584 15.5822
rtibia 61.2951
rfoot 0.468963 7.53695
rtoes 18.7566
lfemur -27.691 30.6155 -10.8581
ltibia 78.069
lfoot -35.3239 21.0858
ltoes -12.6526
502
root -2.23454 14.2244 -12.9873 -0.746438 49.971 -2.52865
lowerback 14.5788 -1.05709 -6.56916
upperback -2.52268 -2.2972 3.16848
thorax -10.6105 -0.561032 7.7728
lowerneck 5.55368 -13.8983 -14.1687
upperneck 0.76993 -19.468 12.1233
head 1.90868 -9.87932 5.38049
rclavicle 1.63003e-014 -2.56432e-014
rhumerus 0.0104973 -15.8271 -68.0505
rradius 80.0031
rwrist 23.7591
rhand -44.704 -36.9221
rfingers 7.12502
rthumb -17.4989 -66.1545
lclavicle 1.63003e-014 -2.56432e-014
lhumerus -54.306 -43.5476 119.656
lradius 103.516
lwrist 79.536
lhand 14.2851 40.201
lfingers 7.12502
lthumb 39.1783 65.6698
rfemur -56.8949 -36.0192 15.6436
rtibia 61.3347
rfoot 0.451329 7.57441
rtoes 18.8388
lfemur -27.7153 30.7513 -10.8229
ltibia 78.0566
lfoot -35.3449 20.9366
ltoes -12.8154
503
root -2.23389 14.2243 -12.9812 -0.69078 49.9779 -2.52024
lowerback 14.5534 -1.04953 -6.56985
upperback -2.53641 -2.28532 3.1746
thorax -10.6131 -0.554535 7.77663
lowerneck 5.58521 -13.9017 -14.1872
upperneck 0.727314 -19.4754 12.1519
head 1.89671 -9.88419 5.39457
rclavicle 9.01985e-015 -7.15625e-015
rhumerus 0.047595 -15.8976 -68.026
rradius 79.9789
rwrist 23.6568
rhand -44.6969 -36.8974
rfingers 7.12502
rthumb -17.492 -66.1304
lclavicle 9.01985e-015 -7.15625e-015
lhumerus -54.3164 -43.5442 119.648
lradius 103.523
lwrist 79.5189
lhand 14.3883 40.0795
lfingers 7.12502
lthumb 39.2756 65.52
rfemur -56.9832 -36.0794 15.706
rtibia 61.377
rfoot 0.434848 7.62398
rtoes 18.918
lfemur -27.7403 30.8923 -10.7886
ltibia 78.0513
lfoot -35.3693 20.7881
ltoes -12.9877
504
root -2.23313 14.2238 -12.9751 -0.63403 49.9819 -2.50661
lowerback 14.5293 -1.04234 -6.57125
upperback -2.55101 -2.27453 3.1773
thorax -10.6173 -0.548542 7.77738
lowerneck 5.61842 -13.9055 -14.2087
upperneck 0.688336 -19.4843 12.1848
head 1.88649 -9.88985 5.41015
rclavicle -6.47541e-014 5.1684e-015
rhumerus 0.0902989 -15.9599 -68.0037
rradius 79.9469
rwrist 23.5355
rhand -44.6801 -36.8744
rfingers 7.12502
rthumb -17.4758 -66.1089
lclavicle -6.47541e-014 5.1684e-015
lhumerus -54.3306 -43.5412 119.641
lradius 103.528
lwrist 79.4829
lhand 14.5026 39.9426
lfingers 7.12502
lthumb 39.3833 65.3518
rfemur -57.0744 -36.145 15.7669
rtibia 61.4233
rfoot 0.418738 7.68681
rtoes 19
lfemur -27.7649 31.0319 -10.759
ltibia 78.0518
lfoot -35.3947 20.6471
ltoes -13.1679
505
root -2.23216 14.2229 -12.9692 -0.575329 49.9852 -2.48532
lowerback 14.507 -1.0368 -6.57377
upperback -2.5663 -2.26672 3.17608
thorax -10.6229 -0.543966 7.77518
lowerneck 5.64947 -13.91 -14.2293
upperneck 0.65688 -19.494 12.2155
head 1.87866 -9.89589 5.42444
rclavicle 2.70471e-014 2.0276e-014
rhumerus 0.136819 -16.0149 -67.9864
rradius 79.9075
rwrist 23.4097
rhand -44.6525 -36.8449
rfingers 7.12502
rthumb -17.4493 -66.0817
lclavicle 2.70471e-014 2.0276e-014
lhumerus -54.3493 -43.5376 119.637
lradius 103.531
lwrist 79.4292
lhand 14.6195 39.8011
lfingers 7.12502
lthumb 39.4934 65.178
rfemur -57.1675 -36.2209 15.824
rtibia 61.4746
rfoot 0.402053 7.76323
rtoes 19.0876
lfemur -27.7876 31.1636 -10.7367
ltibia 78.0568
lfoot -35.4202 20.5183
ltoes -13.3478
